<?xml version="1.0" encoding="UTF-8"?>
<svg version="1.1" xmlns="http://www.w3.org/2000/svg" width="61" height="60">
<path d="M0 0 C20.13 0 40.26 0 61 0 C61 19.8 61 39.6 61 60 C40.87 60 20.74 60 0 60 C0 40.2 0 20.4 0 0 Z " fill="#000204" transform="translate(0,0)"/>
<path d="M0 0 C3.9290625 -0.0309375 3.9290625 -0.0309375 7.9375 -0.0625 C8.7637085 -0.071604 9.58991699 -0.08070801 10.44116211 -0.09008789 C12.29433759 -0.09723945 14.14749308 -0.0502852 16 0 C17 1 17 1 17.25 4.875 C17.2225573 8.70325694 17.2225573 8.70325694 15.5 11 C15.005 11.33 14.51 11.66 14 12 C14.99 13.65 15.98 15.3 17 17 C14.6875 16.75 14.6875 16.75 12 16 C11.525625 15.34 11.05125 14.68 10.5625 14 C9.07576173 11.66681292 9.07576173 11.66681292 5.8125 11.25 C4.884375 11.1675 3.95625 11.085 3 11 C3 12.98 3 14.96 3 17 C2.01 17 1.02 17 0 17 C0 11.39 0 5.78 0 0 Z " fill="#0084F5" transform="translate(28,24)"/>
<path d="M0 0 C0.99 0 1.98 0 3 0 C3.05383848 2.45862401 3.09359038 4.9160755 3.125 7.375 C3.14175781 8.07367188 3.15851562 8.77234375 3.17578125 9.4921875 C3.19344267 11.32897486 3.10303261 13.16601963 3 15 C1 17 1 17 -2.2578125 17.1953125 C-3.53398437 17.17210938 -4.81015625 17.14890625 -6.125 17.125 C-8.04699219 17.09792969 -8.04699219 17.09792969 -10.0078125 17.0703125 C-11.48894531 17.03550781 -11.48894531 17.03550781 -13 17 C-13.33 15.35 -13.66 13.7 -14 12 C-13.01 12 -12.02 12 -11 12 C-11 12.66 -11 13.32 -11 14 C-7.37 14 -3.74 14 0 14 C0 9.38 0 4.76 0 0 Z " fill="#00BEF1" transform="translate(22,24)"/>
<path d="M0 0 C3.63 0 7.26 0 11 0 C11 1.65 11 3.3 11 5 C7.37 5 3.74 5 0 5 C0 3.35 0 1.7 0 0 Z " fill="#01070D" transform="translate(31,27)"/>
</svg>
